<?xml version="1.0" encoding="utf-8"?>

<!-- Uploaded to: SVG Repo, www.svgrepo.com, Generator: SVG Repo Mixer Tools -->
<svg height="800px" width="800px" version="1.1" id="Layer_1" xmlns="http://www.w3.org/2000/svg" xmlns:xlink="http://www.w3.org/1999/xlink" 
	 viewBox="0 0 100 100" enable-background="new 0 0 100 100" xml:space="preserve">
<g>
	<ellipse fill="#F1B57D" cx="50" cy="50" rx="44.494" ry="44.491"/>
	<ellipse fill="#FFFFFF" cx="50" cy="50" rx="34.382" ry="34.379"/>
	<circle fill="#FFFFFF" cx="50" cy="50" r="1.847"/>
	<path fill="#FEE36F" d="M50,48.153c0.47,0,0.895,0.181,1.221,0.471l2.016-2.273L50,30.995L46.763,46.35l2.016,2.273
		C49.105,48.334,49.53,48.153,50,48.153z"/>
	<path fill="#FEE36F" d="M51.221,51.376c-0.326,0.289-0.75,0.471-1.221,0.471s-0.895-0.181-1.221-0.471l-2.016,2.273L50,69.005
		l3.237-15.356L51.221,51.376z"/>
	<path fill="#136296" d="M50,5.003C25.187,5.003,5,25.189,5,50c0,24.811,20.187,44.997,45,44.997S95,74.811,95,50
		C95,25.189,74.813,5.003,50,5.003z M50,93.985C25.745,93.985,6.011,74.253,6.011,50C6.011,25.746,25.745,6.015,50,6.015
		S93.989,25.746,93.989,50C93.989,74.253,74.255,93.985,50,93.985z"/>
	<g>
		<path fill="#FFFFFF" d="M10.544,47.005c0.015,0.001,0.03,0.002,0.044,0.002c0.259,0,0.48-0.198,0.503-0.461
			c0.102-1.162,0.257-2.331,0.462-3.473c0.049-0.275-0.134-0.538-0.409-0.587c-0.275-0.049-0.537,0.134-0.587,0.409
			c-0.21,1.172-0.369,2.371-0.474,3.563C10.06,46.735,10.266,46.98,10.544,47.005z"/>
		<path fill="#FFFFFF" d="M11.704,40.01c0.045,0.012,0.09,0.018,0.134,0.018c0.222,0,0.426-0.148,0.487-0.372
			c0.307-1.12,0.67-2.242,1.077-3.333c0.098-0.262-0.035-0.553-0.297-0.65c-0.261-0.098-0.553,0.035-0.65,0.296
			c-0.419,1.12-0.791,2.271-1.106,3.42C11.276,39.658,11.435,39.936,11.704,40.01z"/>
		<path fill="#FFFFFF" d="M22.618,21.949c0.126,0,0.252-0.047,0.35-0.141c0.839-0.805,1.726-1.582,2.635-2.31
			c0.218-0.175,0.253-0.493,0.079-0.711c-0.174-0.218-0.492-0.254-0.711-0.079c-0.933,0.747-1.843,1.544-2.703,2.37
			c-0.201,0.193-0.208,0.513-0.015,0.715C22.352,21.897,22.485,21.949,22.618,21.949z"/>
		<path fill="#FFFFFF" d="M14.103,33.335c0.071,0.034,0.145,0.05,0.219,0.05c0.189,0,0.369-0.105,0.456-0.287
			c0.505-1.051,1.064-2.089,1.659-3.087c0.143-0.24,0.065-0.55-0.175-0.693c-0.239-0.144-0.55-0.065-0.693,0.175
			c-0.611,1.024-1.184,2.089-1.703,3.167C13.745,32.912,13.851,33.214,14.103,33.335z"/>
		<path fill="#FFFFFF" d="M17.956,27.295c0.157,0,0.311-0.072,0.41-0.209c0.683-0.941,1.417-1.863,2.183-2.742
			c0.184-0.211,0.161-0.53-0.049-0.713c-0.209-0.183-0.529-0.161-0.713,0.049c-0.786,0.901-1.539,1.848-2.24,2.812
			c-0.164,0.226-0.114,0.542,0.112,0.706C17.75,27.263,17.854,27.295,17.956,27.295z"/>
		<path fill="#FFFFFF" d="M10.641,54.095c0.278-0.025,0.483-0.271,0.458-0.549c-0.104-1.155-0.158-2.332-0.159-3.501
			c0-0.279-0.227-0.505-0.506-0.505h0c-0.279,0-0.506,0.227-0.505,0.506c0.001,1.198,0.056,2.405,0.163,3.59
			c0.024,0.263,0.244,0.46,0.503,0.46C10.611,54.097,10.626,54.096,10.641,54.095z"/>
		<path fill="#FFFFFF" d="M81.556,26.979c0.099,0.135,0.253,0.207,0.409,0.207c0.104,0,0.208-0.032,0.298-0.098
			c0.226-0.165,0.275-0.481,0.11-0.707c-0.705-0.963-1.461-1.907-2.249-2.804c-0.185-0.21-0.504-0.23-0.714-0.046
			c-0.21,0.184-0.231,0.504-0.046,0.713C80.132,25.119,80.869,26.039,81.556,26.979z"/>
		<path fill="#FFFFFF" d="M20.606,75.72c-0.184-0.21-0.503-0.23-0.713-0.047c-0.21,0.184-0.231,0.503-0.047,0.713
			c0.788,0.899,1.624,1.772,2.487,2.596c0.098,0.093,0.224,0.14,0.349,0.14c0.133,0,0.267-0.052,0.366-0.157
			c0.193-0.202,0.185-0.522-0.017-0.715C22.19,77.449,21.374,76.597,20.606,75.72z"/>
		<path fill="#FFFFFF" d="M11.57,57.017c-0.05-0.274-0.31-0.458-0.588-0.407c-0.275,0.05-0.457,0.313-0.407,0.588
			c0.213,1.175,0.482,2.354,0.8,3.504c0.062,0.224,0.265,0.371,0.487,0.371c0.045,0,0.09-0.006,0.135-0.018
			c0.269-0.075,0.427-0.353,0.353-0.622C12.04,59.312,11.777,58.163,11.57,57.017z"/>
		<path fill="#FFFFFF" d="M13.436,63.764c-0.098-0.261-0.39-0.394-0.651-0.295c-0.261,0.098-0.394,0.39-0.295,0.651
			c0.421,1.117,0.897,2.228,1.417,3.302c0.087,0.18,0.268,0.285,0.456,0.285c0.074,0,0.149-0.016,0.22-0.05
			c0.251-0.121,0.357-0.424,0.235-0.675C14.31,65.936,13.846,64.853,13.436,63.764z"/>
		<path fill="#FFFFFF" d="M16.482,70.064c-0.144-0.239-0.454-0.317-0.694-0.173c-0.239,0.144-0.317,0.454-0.173,0.694
			c0.614,1.024,1.282,2.032,1.986,2.996c0.099,0.136,0.253,0.208,0.409,0.208c0.103,0,0.207-0.032,0.297-0.097
			c0.226-0.164,0.276-0.48,0.111-0.706C17.732,72.045,17.081,71.062,16.482,70.064z"/>
		<path fill="#FFFFFF" d="M55.174,11.283c1.153,0.153,2.314,0.359,3.449,0.615c0.038,0.008,0.075,0.012,0.112,0.012
			c0.231,0,0.44-0.159,0.493-0.394c0.061-0.272-0.11-0.543-0.382-0.604c-1.165-0.262-2.355-0.475-3.539-0.631
			c-0.277-0.037-0.531,0.158-0.567,0.435C54.702,10.993,54.897,11.247,55.174,11.283z"/>
		<path fill="#FFFFFF" d="M85.165,32.977c0.087,0.18,0.268,0.285,0.455,0.285c0.074,0,0.149-0.016,0.22-0.051
			c0.251-0.122,0.356-0.424,0.234-0.676c-0.522-1.075-1.098-2.138-1.712-3.16c-0.145-0.24-0.456-0.317-0.694-0.173
			c-0.239,0.144-0.317,0.454-0.173,0.694C84.094,30.893,84.656,31.929,85.165,32.977z"/>
		<path fill="#FFFFFF" d="M62.002,12.822c1.107,0.357,2.212,0.769,3.284,1.226c0.065,0.028,0.132,0.041,0.198,0.041
			c0.197,0,0.383-0.116,0.465-0.308c0.11-0.257-0.01-0.554-0.267-0.663c-1.101-0.469-2.234-0.892-3.37-1.258
			c-0.265-0.087-0.551,0.061-0.636,0.326C61.59,12.452,61.736,12.737,62.002,12.822z"/>
		<path fill="#FFFFFF" d="M76.937,21.717c0.098,0.093,0.223,0.139,0.349,0.139c0.133,0,0.267-0.053,0.366-0.157
			c0.193-0.202,0.185-0.522-0.017-0.715c-0.865-0.824-1.777-1.618-2.711-2.361c-0.219-0.174-0.537-0.138-0.711,0.081
			c-0.173,0.218-0.137,0.536,0.081,0.71C75.205,20.14,76.094,20.914,76.937,21.717z"/>
		<path fill="#FFFFFF" d="M68.446,15.564c1.023,0.549,2.035,1.153,3.011,1.794c0.086,0.056,0.182,0.083,0.277,0.083
			c0.164,0,0.326-0.08,0.423-0.228c0.154-0.233,0.089-0.547-0.144-0.7c-1-0.658-2.039-1.277-3.089-1.84
			c-0.246-0.133-0.552-0.039-0.684,0.206C68.107,15.126,68.199,15.432,68.446,15.564z"/>
		<path fill="#FFFFFF" d="M52.21,10.496c0.012-0.279-0.205-0.515-0.484-0.527c-1.195-0.05-2.416-0.047-3.594,0.006
			c-0.279,0.013-0.495,0.249-0.482,0.528c0.012,0.271,0.236,0.482,0.505,0.482c0.008,0,0.016,0,0.024,0
			c1.148-0.054,2.339-0.056,3.505-0.006C51.941,10.99,52.198,10.775,52.21,10.496z"/>
		<path fill="#FFFFFF" d="M28.154,17.517c0.096,0,0.193-0.027,0.279-0.084c0.97-0.643,1.981-1.25,3.004-1.804
			c0.246-0.133,0.337-0.44,0.204-0.685c-0.133-0.246-0.439-0.338-0.685-0.204c-1.05,0.568-2.087,1.19-3.082,1.851
			c-0.233,0.154-0.296,0.468-0.142,0.701C27.83,17.437,27.99,17.517,28.154,17.517z"/>
		<path fill="#FFFFFF" d="M28.506,82.616c-0.974-0.643-1.928-1.336-2.835-2.06c-0.219-0.174-0.536-0.138-0.711,0.079
			c-0.174,0.218-0.139,0.537,0.079,0.71c0.931,0.743,1.909,1.454,2.909,2.114c0.086,0.056,0.182,0.083,0.278,0.083
			c0.164,0,0.325-0.08,0.423-0.227C28.804,83.084,28.739,82.77,28.506,82.616z"/>
		<path fill="#FFFFFF" d="M34.39,14.143c0.067,0,0.135-0.013,0.199-0.041c1.067-0.459,2.17-0.874,3.277-1.236
			c0.266-0.087,0.41-0.372,0.323-0.638c-0.086-0.265-0.37-0.411-0.637-0.324c-1.136,0.371-2.267,0.798-3.362,1.268
			c-0.257,0.11-0.375,0.408-0.265,0.664C34.008,14.028,34.194,14.143,34.39,14.143z"/>
		<path fill="#FFFFFF" d="M88.422,42.938c0.209,1.145,0.368,2.313,0.474,3.471c0.024,0.262,0.244,0.46,0.503,0.46
			c0.015,0,0.031-0.001,0.046-0.002c0.278-0.025,0.483-0.271,0.458-0.55c-0.108-1.188-0.272-2.386-0.486-3.561
			c-0.05-0.274-0.314-0.454-0.588-0.407C88.554,42.4,88.372,42.663,88.422,42.938z"/>
		<path fill="#FFFFFF" d="M41.129,11.942c0.038,0,0.076-0.004,0.114-0.013c1.131-0.259,2.291-0.47,3.446-0.628
			c0.277-0.038,0.471-0.292,0.433-0.569c-0.038-0.276-0.289-0.472-0.569-0.433c-1.186,0.161-2.376,0.378-3.536,0.644
			c-0.272,0.062-0.442,0.334-0.38,0.606C40.691,11.784,40.898,11.942,41.129,11.942z"/>
		<path fill="#FFFFFF" d="M68.523,84.394c-1.022,0.551-2.083,1.064-3.154,1.523c-0.257,0.11-0.376,0.407-0.266,0.664
			c0.082,0.192,0.269,0.307,0.465,0.307c0.067,0,0.134-0.013,0.199-0.041c1.099-0.471,2.188-0.996,3.237-1.563
			c0.245-0.133,0.337-0.439,0.204-0.685C69.076,84.353,68.77,84.26,68.523,84.394z"/>
		<path fill="#FFFFFF" d="M34.672,85.934c-1.068-0.456-2.13-0.968-3.158-1.521c-0.245-0.132-0.553-0.04-0.685,0.206
			c-0.132,0.246-0.04,0.552,0.206,0.685c1.055,0.567,2.144,1.092,3.24,1.56c0.065,0.028,0.132,0.04,0.198,0.04
			c0.196,0,0.383-0.115,0.465-0.307C35.049,86.341,34.929,86.044,34.672,85.934z"/>
		<path fill="#FFFFFF" d="M84.233,69.853c-0.24-0.143-0.55-0.065-0.694,0.174c-0.598,0.999-1.248,1.983-1.933,2.923
			c-0.164,0.226-0.115,0.542,0.111,0.707c0.09,0.065,0.194,0.097,0.297,0.097c0.156,0,0.311-0.072,0.409-0.208
			c0.702-0.965,1.369-1.974,1.983-2.999C84.551,70.307,84.473,69.997,84.233,69.853z"/>
		<path fill="#FFFFFF" d="M88.125,39.894c0.045,0,0.09-0.006,0.136-0.019c0.269-0.075,0.427-0.353,0.352-0.622
			c-0.319-1.149-0.695-2.298-1.118-3.417c-0.099-0.261-0.39-0.393-0.652-0.294c-0.261,0.099-0.393,0.391-0.294,0.652
			c0.412,1.09,0.778,2.21,1.089,3.33C87.7,39.747,87.904,39.894,88.125,39.894z"/>
		<path fill="#FFFFFF" d="M79.421,75.69c-0.764,0.874-1.579,1.727-2.422,2.534c-0.202,0.193-0.209,0.513-0.016,0.715
			c0.099,0.104,0.233,0.156,0.365,0.156c0.126,0,0.252-0.046,0.35-0.14c0.865-0.827,1.701-1.702,2.484-2.599
			c0.184-0.21,0.162-0.53-0.048-0.713C79.924,75.459,79.605,75.481,79.421,75.69z"/>
		<path fill="#FFFFFF" d="M89.026,56.564c-0.279-0.049-0.538,0.133-0.588,0.408c-0.207,1.147-0.468,2.297-0.776,3.416
			c-0.074,0.27,0.084,0.548,0.353,0.622c0.045,0.012,0.09,0.018,0.135,0.018c0.222,0,0.425-0.147,0.487-0.371
			c0.316-1.149,0.584-2.328,0.796-3.505C89.483,56.877,89.3,56.614,89.026,56.564z"/>
		<path fill="#FFFFFF" d="M89.565,49.402c-0.279,0-0.506,0.226-0.506,0.506V50c0,1.17-0.052,2.347-0.155,3.501
			c-0.025,0.278,0.181,0.524,0.459,0.549c0.015,0.001,0.031,0.002,0.045,0.002c0.259,0,0.479-0.198,0.503-0.461
			c0.106-1.183,0.159-2.391,0.159-3.59v-0.093C90.07,49.628,89.844,49.402,89.565,49.402z"/>
		<path fill="#FFFFFF" d="M87.232,63.425c-0.261-0.097-0.553,0.034-0.651,0.296c-0.409,1.09-0.873,2.174-1.378,3.222
			c-0.121,0.252-0.016,0.554,0.236,0.675c0.071,0.034,0.146,0.05,0.219,0.05c0.188,0,0.369-0.105,0.456-0.286
			c0.519-1.075,0.994-2.187,1.415-3.306C87.626,63.814,87.493,63.523,87.232,63.425z"/>
		<path fill="#FFFFFF" d="M55.266,88.704c-1.151,0.155-2.325,0.26-3.489,0.312c-0.279,0.012-0.495,0.249-0.482,0.528
			c0.012,0.271,0.236,0.483,0.505,0.483c0.008,0,0.015,0,0.023,0c1.194-0.053,2.398-0.161,3.579-0.32
			c0.277-0.038,0.471-0.292,0.434-0.569C55.797,88.861,55.549,88.667,55.266,88.704z"/>
		<path fill="#FFFFFF" d="M62.09,87.149c-1.107,0.36-2.243,0.673-3.377,0.932c-0.272,0.062-0.442,0.333-0.38,0.605
			c0.053,0.234,0.262,0.393,0.492,0.393c0.037,0,0.075-0.004,0.113-0.013c1.164-0.265,2.33-0.587,3.465-0.956
			c0.265-0.086,0.411-0.372,0.324-0.637C62.641,87.208,62.358,87.063,62.09,87.149z"/>
		<path fill="#FFFFFF" d="M74.362,80.531c-0.908,0.725-1.861,1.419-2.833,2.063c-0.233,0.155-0.297,0.468-0.143,0.701
			c0.097,0.147,0.258,0.227,0.422,0.227c0.096,0,0.193-0.027,0.278-0.084c0.997-0.661,1.975-1.373,2.906-2.116
			c0.218-0.174,0.254-0.492,0.079-0.71C74.898,80.393,74.58,80.356,74.362,80.531z"/>
		<path fill="#FFFFFF" d="M41.333,88.091c-1.135-0.257-2.271-0.569-3.378-0.927c-0.264-0.086-0.551,0.06-0.636,0.325
			s0.06,0.551,0.325,0.636c1.135,0.368,2.301,0.688,3.466,0.952c0.038,0.008,0.075,0.012,0.112,0.012
			c0.231,0,0.439-0.159,0.493-0.394C41.776,88.424,41.605,88.152,41.333,88.091z"/>
		<path fill="#FFFFFF" d="M48.271,89.018c-1.166-0.051-2.34-0.155-3.489-0.308c-0.279-0.037-0.531,0.157-0.568,0.434
			c-0.037,0.277,0.158,0.531,0.434,0.568c1.179,0.158,2.384,0.264,3.58,0.316c0.007,0,0.015,0,0.022,0
			c0.269,0,0.493-0.212,0.505-0.484C48.767,89.266,48.55,89.031,48.271,89.018z"/>
	</g>
	<path fill="#136296" d="M50,15.115c-19.237,0-34.888,15.649-34.888,34.885S30.763,84.885,50,84.885S84.888,69.236,84.888,50
		S69.237,15.115,50,15.115z M50,83.874c-18.68,0-33.876-15.196-33.876-33.874c0-18.678,15.197-33.874,33.876-33.874
		S83.876,31.322,83.876,50C83.876,68.678,68.68,83.874,50,83.874z"/>
	<path fill="#136296" d="M53.731,46.246l-3.237-15.355c-0.049-0.234-0.256-0.401-0.495-0.401s-0.445,0.167-0.495,0.401
		l-3.237,15.355c-0.033,0.157,0.01,0.32,0.117,0.44l1.717,1.936c-0.283,0.388-0.455,0.862-0.455,1.378
		c0,0.516,0.172,0.99,0.455,1.378l-1.717,1.936c-0.106,0.119-0.15,0.283-0.117,0.439l3.237,15.355
		c0.049,0.234,0.256,0.401,0.495,0.401s0.445-0.167,0.495-0.401l3.237-15.355c0.033-0.157-0.01-0.32-0.117-0.439l-1.717-1.936
		c0.283-0.388,0.455-0.862,0.455-1.378c0-0.516-0.172-0.99-0.455-1.378l1.717-1.936C53.721,46.566,53.764,46.403,53.731,46.246z
		 M49.115,49.002c0.124-0.11,0.31-0.231,0.551-0.296c0.018-0.005,0.034-0.012,0.052-0.016c0.087-0.019,0.181-0.031,0.282-0.031
		s0.195,0.012,0.282,0.031c0.018,0.004,0.034,0.012,0.052,0.016c0.241,0.065,0.427,0.186,0.551,0.296
		c0.003,0.002,0.006,0.003,0.009,0.005c0.273,0.246,0.448,0.598,0.448,0.993c0,0.395-0.175,0.748-0.449,0.994
		c-0.002,0.002-0.006,0.003-0.008,0.005c-0.124,0.11-0.31,0.231-0.551,0.296c-0.018,0.005-0.034,0.012-0.052,0.016
		c-0.087,0.019-0.181,0.031-0.282,0.031s-0.195-0.012-0.282-0.031c-0.018-0.004-0.034-0.012-0.052-0.016
		c-0.241-0.065-0.427-0.186-0.551-0.296c-0.002-0.002-0.006-0.003-0.008-0.005c-0.273-0.246-0.448-0.598-0.448-0.994
		c0-0.395,0.175-0.748,0.448-0.993C49.109,49.005,49.113,49.004,49.115,49.002z M50,66.554l-2.69-12.759l1.547-1.744
		c0.034,0.019,0.07,0.033,0.105,0.05c0.073,0.036,0.146,0.069,0.222,0.098c0.083,0.031,0.168,0.058,0.254,0.079
		c0.069,0.017,0.139,0.029,0.21,0.04c0.06,0.009,0.12,0.014,0.18,0.018c0.058,0.004,0.113,0.017,0.171,0.017
		s0.114-0.013,0.171-0.017c0.06-0.004,0.121-0.009,0.18-0.018c0.071-0.011,0.141-0.023,0.21-0.04
		c0.086-0.021,0.17-0.048,0.254-0.079c0.077-0.028,0.149-0.062,0.222-0.098c0.035-0.017,0.071-0.031,0.105-0.05l1.547,1.744
		L50,66.554z M51.143,47.95c-0.035-0.02-0.073-0.035-0.109-0.053c-0.053-0.026-0.104-0.055-0.159-0.077
		c-0.112-0.046-0.228-0.08-0.345-0.107c-0.04-0.009-0.079-0.017-0.12-0.024c-0.135-0.024-0.271-0.041-0.409-0.041
		s-0.274,0.017-0.409,0.041c-0.04,0.007-0.08,0.015-0.12,0.024c-0.117,0.028-0.233,0.062-0.345,0.107
		c-0.055,0.022-0.106,0.051-0.159,0.077c-0.036,0.018-0.074,0.033-0.109,0.053l-1.547-1.745L50,33.446l2.69,12.759L51.143,47.95z"/>
	<path fill="#136296" d="M70.644,28.643l-3.329,3.329c-0.198,0.197-0.198,0.517,0,0.715c0.099,0.099,0.228,0.148,0.357,0.148
		c0.129,0,0.259-0.049,0.357-0.148l3.329-3.329c0.198-0.197,0.198-0.517,0-0.715C71.161,28.445,70.841,28.445,70.644,28.643z"/>
	<path fill="#136296" d="M31.971,67.313l-3.329,3.329c-0.198,0.197-0.198,0.517,0,0.715c0.099,0.099,0.228,0.148,0.357,0.148
		s0.259-0.049,0.357-0.148l3.329-3.329c0.198-0.197,0.198-0.517,0-0.715C32.488,67.116,32.168,67.116,31.971,67.313z"/>
	<path fill="#136296" d="M29.356,28.643c-0.198-0.197-0.517-0.197-0.715,0c-0.198,0.197-0.198,0.517,0,0.715l3.329,3.329
		c0.099,0.099,0.228,0.148,0.357,0.148s0.259-0.049,0.357-0.148c0.198-0.197,0.198-0.517,0-0.715L29.356,28.643z"/>
	<path fill="#136296" d="M68.029,67.313c-0.198-0.197-0.517-0.197-0.715,0c-0.198,0.197-0.198,0.517,0,0.715l3.329,3.329
		c0.099,0.099,0.228,0.148,0.357,0.148c0.129,0,0.259-0.049,0.357-0.148c0.198-0.197,0.198-0.517,0-0.715L68.029,67.313z"/>
	<path fill="#136296" d="M74.992,50.506h4.709c0.279,0,0.506-0.226,0.506-0.506s-0.226-0.506-0.506-0.506h-4.709
		c-0.279,0-0.506,0.226-0.506,0.506S74.712,50.506,74.992,50.506z"/>
	<path fill="#136296" d="M25.008,49.494h-4.709c-0.279,0-0.506,0.226-0.506,0.506s0.226,0.506,0.506,0.506h4.709
		c0.279,0,0.506-0.226,0.506-0.506S25.288,49.494,25.008,49.494z"/>
	<polygon fill="#F0566F" points="48.689,21.699 51.217,25.801 52.487,25.801 52.487,19.511 51.311,19.511 51.311,23.711 
		48.744,19.511 47.513,19.511 47.513,25.801 48.689,25.801 	"/>
	<path fill="#F68C43" d="M51.606,77.014c-0.295-0.156-0.75-0.307-1.366-0.452s-1.004-0.286-1.163-0.421
		c-0.126-0.106-0.188-0.233-0.188-0.382c0-0.163,0.067-0.293,0.201-0.391c0.208-0.152,0.496-0.228,0.864-0.228
		c0.357,0,0.624,0.071,0.802,0.213c0.178,0.141,0.294,0.374,0.349,0.697l1.266-0.056c-0.02-0.577-0.229-1.039-0.627-1.386
		c-0.398-0.346-0.99-0.519-1.777-0.519c-0.482,0-0.893,0.073-1.234,0.219c-0.34,0.146-0.601,0.358-0.782,0.637
		c-0.181,0.279-0.271,0.578-0.271,0.899c0,0.498,0.192,0.92,0.577,1.266c0.274,0.246,0.75,0.453,1.429,0.622
		c0.527,0.131,0.865,0.223,1.013,0.275c0.217,0.077,0.368,0.168,0.456,0.272c0.087,0.105,0.13,0.231,0.13,0.38
		c0,0.232-0.103,0.434-0.31,0.607c-0.207,0.173-0.514,0.26-0.922,0.26c-0.385,0-0.69-0.098-0.917-0.292
		c-0.227-0.195-0.377-0.499-0.451-0.914l-1.232,0.12c0.083,0.703,0.336,1.239,0.761,1.606c0.425,0.368,1.033,0.551,1.826,0.551
		c0.545,0,0.999-0.076,1.364-0.229c0.365-0.153,0.647-0.387,0.847-0.702c0.2-0.314,0.299-0.652,0.299-1.012
		c0-0.398-0.083-0.731-0.25-1.002C52.132,77.383,51.901,77.17,51.606,77.014z"/>
</g>
</svg>